HIERARCHY
ROOT Hips
{
  OFFSET -0.557177 88.3909 1.45027
  CHANNELS 6 Xposition Yposition Zposition Zrotation Xrotation Yrotation
  JOINT Spine
  {
    OFFSET 0 10.1816 0.1315
    CHANNELS 6 Xposition Yposition Zposition Zrotation Xrotation Yrotation
    JOINT Spine1
    {
      OFFSET 0 10.0835 -1.0008
      CHANNELS 6 Xposition Yposition Zposition Zrotation Xrotation Yrotation
      JOINT Spine2
      {
        OFFSET 0 9.1 -1.3734
        CHANNELS 6 Xposition Yposition Zposition Zrotation Xrotation Yrotation
        JOINT Neck
        {
          OFFSET 0 16.6717 -2.5162
          CHANNELS 6 Xposition Yposition Zposition Zrotation Xrotation Yrotation
          JOINT Head
          {
            OFFSET 0 9.6179 1.685
            CHANNELS 6 Xposition Yposition Zposition Zrotation Xrotation Yrotation
            JOINT HeadTop_End
            {
              OFFSET 0 17.8152 2.585
              CHANNELS 6 Xposition Yposition Zposition Zrotation Xrotation Yrotation
              End Site
              {
                OFFSET 0 0 0
              }
            }
            JOINT LeftEye
            {
              OFFSET 3.0676 6.4095 9.2836
              CHANNELS 6 Xposition Yposition Zposition Zrotation Xrotation Yrotation
              End Site
              {
                OFFSET 0 0 0
              }
            }
            JOINT RightEye
            {
              OFFSET -3.0676 6.4095 9.2835
              CHANNELS 6 Xposition Yposition Zposition Zrotation Xrotation Yrotation
              End Site
              {
                OFFSET 0 0 0
              }
            }
          }
        }
        JOINT LeftShoulder
        {
          OFFSET 4.5704 10.946 -2.628
          CHANNELS 6 Xposition Yposition Zposition Zrotation Xrotation Yrotation
          JOINT LeftArm
          {
            OFFSET 10.5924 -0.5246 -2.2321
            CHANNELS 6 Xposition Yposition Zposition Zrotation Xrotation Yrotation
            JOINT LeftForeArm
            {
              OFFSET 27.8415 -0.0001 0
              CHANNELS 6 Xposition Yposition Zposition Zrotation Xrotation Yrotation
              JOINT LeftHand
              {
                OFFSET 28.3288 0 0
                CHANNELS 6 Xposition Yposition Zposition Zrotation Xrotation Yrotation
                JOINT LeftHandThumb1
                {
                  OFFSET 2.4661 -1.575 2.6824
                  CHANNELS 6 Xposition Yposition Zposition Zrotation Xrotation Yrotation
                  JOINT LeftHandThumb2
                  {
                    OFFSET 3.2298 -1.8647 1.8647
                    CHANNELS 6 Xposition Yposition Zposition Zrotation Xrotation Yrotation
                    JOINT LeftHandThumb3
                    {
                      OFFSET 2.6526 -1.5315 1.5315
                      CHANNELS 6 Xposition Yposition Zposition Zrotation Xrotation Yrotation
                      End Site
                      {
                        OFFSET 1.9546 -1.1285 1.1285
                      }
                    }
                  }
                }
                JOINT LeftHandIndex1
                {
                  OFFSET 9.1093 -0.5171 2.2601
                  CHANNELS 6 Xposition Yposition Zposition Zrotation Xrotation Yrotation
                  JOINT LeftHandIndex2
                  {
                    OFFSET 3.6764 0 0
                    CHANNELS 6 Xposition Yposition Zposition Zrotation Xrotation Yrotation
                    JOINT LeftHandIndex3
                    {
                      OFFSET 2.8831 0 0
                      CHANNELS 6 Xposition Yposition Zposition Zrotation Xrotation Yrotation
                      End Site
                      {
                        OFFSET 2.3927 0 0
                      }
                    }
                  }
                }
                JOINT LeftHandMiddle1
                {
                  OFFSET 9.5334 0 0
                  CHANNELS 6 Xposition Yposition Zposition Zrotation Xrotation Yrotation
                  JOINT LeftHandMiddle2
                  {
                    OFFSET 3.6982 0 0
                    CHANNELS 6 Xposition Yposition Zposition Zrotation Xrotation Yrotation
                    JOINT LeftHandMiddle3
                    {
                      OFFSET 2.9509 0 0
                      CHANNELS 6 Xposition Yposition Zposition Zrotation Xrotation Yrotation
                      End Site
                      {
                        OFFSET 2.8339 0 0
                      }
                    }
                  }
                }
                JOINT LeftHandRing1
                {
                  OFFSET 9.1045 -0.0439 -1.8651
                  CHANNELS 6 Xposition Yposition Zposition Zrotation Xrotation Yrotation
                  JOINT LeftHandRing2
                  {
                    OFFSET 3.154 0 0
                    CHANNELS 6 Xposition Yposition Zposition Zrotation Xrotation Yrotation
                    JOINT LeftHandRing3
                    {
                      OFFSET 2.9377 0 0
                      CHANNELS 6 Xposition Yposition Zposition Zrotation Xrotation Yrotation
                      End Site
                      {
                        OFFSET 2.6475 0 0
                      }
                    }
                  }
                }
                JOINT LeftHandPinky1
                {
                  OFFSET 8.0778 -0.4887 -3.8061
                  CHANNELS 6 Xposition Yposition Zposition Zrotation Xrotation Yrotation
                  JOINT LeftHandPinky2
                  {
                    OFFSET 3.6 0 0
                    CHANNELS 6 Xposition Yposition Zposition Zrotation Xrotation Yrotation
                    JOINT LeftHandPinky3
                    {
                      OFFSET 2.1142 0 0
                      CHANNELS 6 Xposition Yposition Zposition Zrotation Xrotation Yrotation
                      End Site
                      {
                        OFFSET 1.9757 0 0
                      }
                    }
                  }
                }
              }
            }
          }
        }
        JOINT RightShoulder
        {
          OFFSET -4.57 10.9462 -2.628
          CHANNELS 6 Xposition Yposition Zposition Zrotation Xrotation Yrotation
          JOINT RightArm
          {
            OFFSET -10.5928 -0.5248 -2.2321
            CHANNELS 6 Xposition Yposition Zposition Zrotation Xrotation Yrotation
            JOINT RightForeArm
            {
              OFFSET -27.8415 0 0
              CHANNELS 6 Xposition Yposition Zposition Zrotation Xrotation Yrotation
              JOINT RightHand
              {
                OFFSET -28.3288 0 0.0001
                CHANNELS 6 Xposition Yposition Zposition Zrotation Xrotation Yrotation
                JOINT RightHandPinky1
                {
                  OFFSET -8.0767 -0.4885 -3.806
                  CHANNELS 6 Xposition Yposition Zposition Zrotation Xrotation Yrotation
                  JOINT RightHandPinky2
                  {
                    OFFSET -3.6 0 0.0001
                    CHANNELS 6 Xposition Yposition Zposition Zrotation Xrotation Yrotation
                    JOINT RightHandPinky3
                    {
                      OFFSET -2.1142 0 0
                      CHANNELS 6 Xposition Yposition Zposition Zrotation Xrotation Yrotation
                      End Site
                      {
                        OFFSET -1.9757 0 0
                      }
                    }
                  }
                }
                JOINT RightHandRing1
                {
                  OFFSET -9.1036 -0.0439 -1.8651
                  CHANNELS 6 Xposition Yposition Zposition Zrotation Xrotation Yrotation
                  JOINT RightHandRing2
                  {
                    OFFSET -3.154 0 0
                    CHANNELS 6 Xposition Yposition Zposition Zrotation Xrotation Yrotation
                    JOINT RightHandRing3
                    {
                      OFFSET -2.9377 0 0
                      CHANNELS 6 Xposition Yposition Zposition Zrotation Xrotation Yrotation
                      End Site
                      {
                        OFFSET -2.6475 0 0
                      }
                    }
                  }
                }
                JOINT RightHandMiddle1
                {
                  OFFSET -9.5325 0 0
                  CHANNELS 6 Xposition Yposition Zposition Zrotation Xrotation Yrotation
                  JOINT RightHandMiddle2
                  {
                    OFFSET -3.6982 0 0
                    CHANNELS 6 Xposition Yposition Zposition Zrotation Xrotation Yrotation
                    JOINT RightHandMiddle3
                    {
                      OFFSET -2.9509 0 0
                      CHANNELS 6 Xposition Yposition Zposition Zrotation Xrotation Yrotation
                      End Site
                      {
                        OFFSET -2.8339 0 0.0001
                      }
                    }
                  }
                }
                JOINT RightHandIndex1
                {
                  OFFSET -9.1083 -0.5168 2.2601
                  CHANNELS 6 Xposition Yposition Zposition Zrotation Xrotation Yrotation
                  JOINT RightHandIndex2
                  {
                    OFFSET -3.6764 0 0
                    CHANNELS 6 Xposition Yposition Zposition Zrotation Xrotation Yrotation
                    JOINT RightHandIndex3
                    {
                      OFFSET -2.8831 0 0
                      CHANNELS 6 Xposition Yposition Zposition Zrotation Xrotation Yrotation
                      End Site
                      {
                        OFFSET -2.3927 0 0
                      }
                    }
                  }
                }
                JOINT RightHandThumb1
                {
                  OFFSET -2.4648 -1.5727 2.6826
                  CHANNELS 6 Xposition Yposition Zposition Zrotation Xrotation Yrotation
                  JOINT RightHandThumb2
                  {
                    OFFSET -3.2298 -1.8647 1.8647
                    CHANNELS 6 Xposition Yposition Zposition Zrotation Xrotation Yrotation
                    JOINT RightHandThumb3
                    {
                      OFFSET -2.6526 -1.5314 1.5314
                      CHANNELS 6 Xposition Yposition Zposition Zrotation Xrotation Yrotation
                      End Site
                      {
                        OFFSET -1.9546 -1.1285 1.1285
                      }
                    }
                  }
                }
              }
            }
          }
        }
      }
    }
  }
  JOINT LeftUpLeg
  {
    OFFSET 8.2078 -6.7517 -1.5996
    CHANNELS 6 Xposition Yposition Zposition Zrotation Xrotation Yrotation
    JOINT LeftLeg
    {
      OFFSET 0 -44.3705 0.2846
      CHANNELS 6 Xposition Yposition Zposition Zrotation Xrotation Yrotation
      JOINT LeftFoot
      {
        OFFSET 0 -44.4279 -2.9822
        CHANNELS 6 Xposition Yposition Zposition Zrotation Xrotation Yrotation
        JOINT LeftToeBase
        {
          OFFSET 0 -8.7287 10.7106
          CHANNELS 6 Xposition Yposition Zposition Zrotation Xrotation Yrotation
          End Site
          {
            OFFSET 0 -0.0007 9.2781
          }
        }
      }
    }
  }
  JOINT RightUpLeg
  {
    OFFSET -8.2078 -6.7517 -1.5996
    CHANNELS 6 Xposition Yposition Zposition Zrotation Xrotation Yrotation
    JOINT RightLeg
    {
      OFFSET 0 -44.3705 0.2862
      CHANNELS 6 Xposition Yposition Zposition Zrotation Xrotation Yrotation
      JOINT RightFoot
      {
        OFFSET 0 -44.4277 -2.9838
        CHANNELS 6 Xposition Yposition Zposition Zrotation Xrotation Yrotation
        JOINT RightToeBase
        {
          OFFSET 0 -8.7287 10.7106
          CHANNELS 6 Xposition Yposition Zposition Zrotation Xrotation Yrotation
          End Site
          {
            OFFSET 0 -0.0007 9.2781
          }
        }
      }
    }
  }
}
MOTION
Frames:	4
Frame Time:	0.0333333
1.63753 126.188 220.231 -1.32526 -13.6446 8.04887 0 10.1816 0.1315 6.81124 40.4927 2.11067 0 10.0835 -1.0008 2.82123 0.969814 0.184848 0 9.1 -1.3734 2.80257 0.969331 0.386734 -7.10543e-015 16.6717 -2.5162 -0.844881 6.0429 -2.04274 0 9.6179 1.685 5.54472 2.44289 -14.104 0 17.8152 2.585 4.41391e-032 -3.18055e-015 7.95139e-016 3.0676 6.4095 9.2836 4.41391e-032 -3.18055e-015 7.95139e-016 -3.0676 6.4095 9.2835 4.41391e-032 -3.18055e-015 7.95139e-016 4.5704 10.946 -2.628 5.60803 -0.0780496 6.11056 10.5924 -0.5246 -2.2321 27.8436 -8.63434 -2.83196 27.8415 -0.0001 2.84217e-014 -0.00019434 -1.01175e-006 -13.4809 28.3288 0 -1.42109e-014 24.3239 -11.6834 -8.021 2.4661 -1.575 2.6824 4.10923 0.685896 9.94694 3.2298 -1.8647 1.8647 1.69659 7.10453 16.8989 2.6526 -1.5315 1.5315 4.67336 -14.1826 -21.2185 9.1093 -0.5171 2.2601 16.3708 -5.09987 -7.02428 3.6764 -1.42109e-014 2.84217e-014 -4.87477 -0.0211349 0.496726 2.8831 0 0 0.599559 -0.000321358 -0.0611634 9.5334 -1.42109e-014 0 16.7567 1.88503 4.01025 3.6982 -3.55271e-015 0 -10.7176 -0.101963 1.08712 2.9509 -1.42109e-014 1.42109e-014 15.3667 -0.209016 -1.54918 9.1045 -0.0439 -1.8651 15.1823 2.21932 2.46755 3.154 0 1.42109e-014 -6.74926 -0.0405138 0.686993 2.9377 -3.55271e-015 0 -4.50873 -0.0180878 0.459513 8.0778 -0.4887 -3.8061 6.19276 0.523029 12.7973 3.6 0 2.84217e-014 -6.30799 -0.0353971 0.642264 2.1142 0 -2.84217e-014 7.53147 -0.050432 -0.766178 -4.57 10.9462 -2.628 -2.12049 -0.24818 -4.41927 -10.5928 -0.5248 -2.2321 32.2474 9.83641 -10.266 -27.8415 0 1.42109e-014 -2.50787e-007 2.02529e-006 22.1874 -28.3288 2.84217e-014 0.0001 -1.62867 -3.2904 -21.5764 -8.0767 -0.4885 -3.806 5.6224 1.89631 -9.73439 -3.6 0 0.0001 19.362 -0.261979 -1.53722 -2.1142 0 -2.84217e-014 16.2733 -0.185948 -1.3005 -9.1036 -0.0439 -1.8651 0.182271 -0.205189 -11.0325 -3.154 -2.84217e-014 1.42109e-014 30.7927 -0.654484 -2.37638 -2.9377 0 2.84217e-014 12.1497 -0.103956 -0.976739 -9.5325 -5.68434e-014 0 -7.94649 -4.47324 -6.73646 -3.6982 0 0 20.6916 -0.299408 -1.63993 -2.9509 0 -2.84217e-014 8.59287 -0.0520899 -0.695406 -9.1083 -0.5168 2.2601 -21.6732 0.559347 -0.388508 -3.6764 0 -1.42109e-014 15.6376 -0.171783 -1.25099 -2.8831 5.68434e-014 0 8.91646 -0.0560823 -0.719289 -2.4648 -1.5727 2.6826 -6.42605 -23.0843 -1.27643 -3.2298 -1.8647 1.8647 -2.66298 8.7676 -24.3192 -2.6526 -1.5314 1.5314 -12.556 -8.82497 3.9886 8.2078 -6.7517 -1.5996 2.34931 -48.4682 5.92418 0 -44.3705 0.2846 -2.1056 31.511 2.24545 -7.10543e-015 -44.4279 -2.9822 8.25514 31.6439 -0.621302 7.10543e-015 -8.7287 10.7106 1.97345e-006 -3.69096 2.49556e-007 -8.2078 -6.7517 -1.5996 -20.3811 -43.0229 -23.3144 0 -44.3705 0.2862 178.521 69.1809 -175.084 0 -44.4277 -2.9838 -6.26931 -5.42699 0.155303 0 -8.7287 10.7106 5.17596e-007 -0.70712 1.26689e-006 
1.98076 121.769 237.509 -3.48895 -13.3678 12.3651 0 10.1816 0.1315 10.979 36.1781 -4.81432 0 10.0835 -1.0008 3.75262 2.08754 -0.655909 -3.55271e-015 9.1 -1.3734 3.77416 2.1166 -0.412588 0 16.6717 -2.5162 -0.799741 7.44149 -1.72188 -3.55271e-015 9.6179 1.685 2.51866 2.52649 -11.7804 0 17.8152 2.585 -7.95139e-016 9.54166e-015 -0 3.0676 6.4095 9.2836 -7.95139e-016 9.54166e-015 -0 -3.0676 6.4095 9.2835 -7.95139e-016 9.54166e-015 -0 4.5704 10.946 -2.628 8.80513 0.0443471 5.52597 10.5924 -0.5246 -2.2321 29.5332 -11.7665 -6.98574 27.8415 -0.0001 -2.84217e-014 -0.000210876 6.9616e-008 -15.8203 28.3288 0 0 20.1993 -15.3339 -14.5051 2.4661 -1.575 2.6824 3.42947 1.87032 11.699 3.2298 -1.8647 1.8647 1.69651 7.10466 16.8996 2.6526 -1.5315 1.5315 5.12986 -13.3048 -18.8206 9.1093 -0.5171 2.2601 14.1419 -5.12317 -6.98809 3.6764 0 0 -5.25977 -0.0246159 0.535869 2.8831 1.42109e-014 2.84217e-014 0.578838 -0.000299231 -0.0590552 9.5334 0 0 15.1474 1.97148 5.31662 3.6982 1.42109e-014 0 -11.6566 -0.120562 1.18111 2.9509 0 0 14.604 -0.188883 -1.474 9.1045 -0.0439 -1.8651 12.1985 2.29427 2.77838 3.154 0 0 -7.40457 -0.0487487 0.75334 2.9377 7.10543e-015 0 -5.17345 -0.0238199 0.527087 8.0778 -0.4887 -3.8061 5.05352 0.506527 12.8974 3.6 0 -2.84217e-014 -7.36438 -0.0482181 0.749273 2.1142 -7.10543e-015 0 6.27767 -0.0350591 -0.63919 -4.57 10.9462 -2.628 -1.2364 -0.809346 -7.18244 -10.5928 -0.5248 -2.2321 40.5984 9.06647 -18.45 -27.8415 0 1.42109e-014 1.42206e-005 1.01766e-005 22.3433 -28.3288 0 0.0001 -2.68821 -0.409567 -23.4749 -8.0767 -0.4885 -3.806 6.30262 1.77003 -9.25662 -3.6 0 0.0001 19.537 -0.266711 -1.55058 -2.1142 0 1.42109e-014 16.4483 -0.189931 -1.3141 -9.1036 -0.0439 -1.8651 0.640837 -0.222748 -11.0354 -3.154 0 1.42109e-014 30.6181 -0.647254 -2.3642 -2.9377 1.42109e-014 -1.42109e-014 11.975 -0.100999 -0.962905 -9.5325 0 1.42109e-014 -5.77547 -3.0319 -5.82523 -3.6982 0 -1.42109e-014 20.4396 -0.292245 -1.62082 -2.9509 0 0 8.34086 -0.0490755 -0.675218 -9.1083 -0.5168 2.2601 -18.9981 0.535545 -0.630787 -3.6764 0 0 14.2297 -0.14238 -1.14078 -2.8831 0 2.84217e-014 7.50832 -0.0397884 -0.606407 -2.4648 -1.5727 2.6826 -6.57032 -23.369 -1.37883 -3.2298 -1.8647 1.8647 -2.41877 9.40572 -25.9234 -2.6526 -1.5314 1.5314 -12.5684 -8.83968 3.98431 8.2078 -6.7517 -1.5996 4.10474 -41.9809 9.27814 0 -44.3705 0.2846 -2.04661 29.2257 -0.946224 0 -44.4279 -2.9822 6.45825 35.0435 0.142717 -1.42109e-014 -8.7287 10.7106 -3.5059e-006 -2.52912 -8.28475e-006 -8.2078 -6.7517 -1.5996 -22.9465 -47.9182 -25.325 -3.55271e-015 -44.3705 0.2862 170.627 76.1939 -166.649 1.77636e-015 -44.4277 -2.9838 -5.71912 -7.89215 0.35513 0 -8.7287 10.7106 -3.43249e-006 -3.19203 -4.23949e-007 
2.24264 116.363 255.282 -5.18884 -12.9398 14.9078 1.42109e-014 10.1816 0.1315 12.6801 30.4873 -10.5879 0 10.0835 -1.0008 4.19846 3.50805 -1.46558 0 9.1 -1.3734 4.22434 3.58054 -1.22962 0 16.6717 -2.5162 -1.56992 9.07586 -1.02729 1.77636e-015 9.6179 1.685 -0.292896 3.31362 -8.83739 0 17.8152 2.585 -2.64834e-031 -9.54166e-015 -1.59028e-015 3.0676 6.4095 9.2836 -2.64834e-031 -9.54166e-015 -1.59028e-015 -3.0676 6.4095 9.2835 -2.64834e-031 -9.54166e-015 -1.59028e-015 4.5704 10.946 -2.628 9.68712 0.108769 3.92326 10.5924 -0.5246 -2.2321 27.6965 -20.5004 -5.53116 27.8415 -0.0001 -2.84217e-014 -0.000202877 -1.32444e-006 -32.6753 28.3288 1.42109e-014 0 11.1745 -17.2228 -19.7515 2.4661 -1.575 2.6824 1.54575 1.23664 11.7686 3.2298 -1.8647 1.8647 1.69683 7.10529 16.9029 2.6526 -1.5315 1.5315 5.62293 -11.5104 -14.5695 9.1093 -0.5171 2.2601 8.49428 -5.22063 -6.38568 3.6764 2.84217e-014 0 -5.55496 -0.0274431 0.565848 2.8831 1.42109e-014 2.84217e-014 -0.975826 -0.0008386 0.099538 9.5334 1.42109e-014 0 9.56044 2.06369 7.53568 3.6982 2.84217e-014 -1.42109e-014 -14.0052 -0.173784 1.41478 2.9509 2.84217e-014 -1.42109e-014 12.5368 -0.139381 -1.26894 9.1045 -0.0439 -1.8651 5.28421 2.73399 4.34376 3.154 -2.84217e-014 -1.42109e-014 -10.6513 -0.100724 1.08047 2.9377 2.84217e-014 -1.42109e-014 -8.30206 -0.0612511 0.844058 8.0778 -0.4887 -3.8061 2.27926 -0.193473 12.4152 3.6 2.84217e-014 -1.42109e-014 -9.37952 -0.0781615 0.952694 2.1142 -2.84217e-014 0 3.70185 -0.0121951 -0.377408 -4.57 10.9462 -2.628 0.121478 -1.80262 -12.1542 -10.5928 -0.5248 -2.2321 48.4887 6.6537 -23.9246 -27.8415 0 -2.84217e-014 -5.44889e-006 -1.45463e-005 19.6197 -28.3288 0 0.0001 -4.7091 -1.32014 -23.4242 -8.0767 -0.4885 -3.806 9.44339 1.64096 -9.66265 -3.6 0 0.0001 18.8645 -0.248789 -1.49913 -2.1142 0 -2.84217e-014 15.7757 -0.174829 -1.26176 -9.1036 -0.0439 -1.8651 0.851998 -0.258846 -12.0177 -3.154 0 0 30.4032 -0.638419 -2.34919 -2.9377 7.10543e-015 1.42109e-014 11.76 -0.0974252 -0.94587 -9.5325 0 0 -2.02135 -1.59177 -4.66469 -3.6982 0 1.42109e-014 20.4042 -0.291229 -1.61812 -2.9509 0 0 8.30538 -0.0486822 -0.672362 -9.1083 -0.5168 2.2601 -14.8028 0.475545 -1.00779 -3.6764 0 1.42109e-014 12.9054 -0.117243 -1.03652 -2.8831 2.84217e-014 1.42109e-014 6.18388 -0.0269987 -0.499889 -2.4648 -1.5727 2.6826 -6.72867 -23.6773 -1.49108 -3.2298 -1.8647 1.8647 -1.78217 10.9753 -29.8591 -2.6526 -1.5314 1.5314 -12.6096 -8.88881 3.96997 8.2078 -6.7517 -1.5996 7.13841 -39.7528 13.1614 -1.42109e-014 -44.3705 0.2846 -1.70359 34.5945 -2.49045 -1.42109e-014 -44.4279 -2.9822 3.69111 36.1442 1.99086 -1.42109e-014 -8.7287 10.7106 -8.25182e-006 -0.058068 2.34381e-006 -8.2078 -6.7517 -1.5996 -23.9961 -52.6188 -25.3167 0 -44.3705 0.2862 136.619 84.1949 -135.161 1.77636e-015 -44.4277 -2.9838 -5.01701 -9.17111 0.802845 0 -8.7287 10.7106 2.46027e-006 -5.23179 9.08932e-007 
2.25458 109.874 272.577 -5.70577 -12.953 16.7656 -1.42109e-014 10.1816 0.1315 12.2656 25.9747 -16.2614 0 10.0835 -1.0008 4.00383 4.36008 -2.28174 -8.88178e-016 9.1 -1.3734 4.02076 4.4791 -2.06972 0 16.6717 -2.5162 -2.14845 10.6125 -0.158687 0 9.6179 1.685 -2.31903 2.79019 -4.81331 3.55271e-015 17.8152 2.585 3.97569e-016 -6.36111e-015 7.95139e-016 3.0676 6.4095 9.2836 3.97569e-016 -6.36111e-015 7.95139e-016 -3.0676 6.4095 9.2835 3.97569e-016 -6.36111e-015 7.95139e-016 4.5704 10.946 -2.628 9.42557 0.135768 1.66679 10.5924 -0.5246 -2.2321 20.4731 -32.0978 -5.32304 27.8415 -0.0001 0 -0.00020472 -7.74887e-006 -54.814 28.3288 0 0 -4.96497 -17.1619 -31.1626 2.4661 -1.575 2.6824 0.108753 -1.23287 9.84266 3.2298 -1.8647 1.8647 1.69739 7.10653 16.9093 2.6526 -1.5315 1.5315 6.00644 -9.4027 -9.99463 9.1093 -0.5171 2.2601 0.285874 -5.46736 -5.36139 3.6764 2.84217e-014 2.84217e-014 -9.63366 -0.0824365 0.978259 2.8831 0 0 -5.0337 -0.0225433 0.512892 9.5334 -4.26326e-014 0 -0.488587 1.77187 9.81346 3.6982 -2.84217e-014 0 -16.8456 -0.250883 1.69419 2.9509 0 0 9.92227 -0.087441 -1.00729 9.1045 -0.0439 -1.8651 -4.0871 2.42203 5.40094 3.154 -1.42109e-014 0 -16.1283 -0.230106 1.62399 2.9377 -2.84217e-014 0 -13.5526 -0.162786 1.36991 8.0778 -0.4887 -3.8061 -3.33472 -1.60208 11.447 3.6 2.84217e-014 -1.42109e-014 -12.299 -0.134172 1.24524 2.1142 2.84217e-014 0 -0.0945201 -8.21014e-006 0.00963854 -4.57 10.9462 -2.628 1.10862 -3.0795 -18.0392 -10.5928 -0.5248 -2.2321 55.0177 3.67714 -30.7496 -27.8415 0 -4.26326e-014 -8.69832e-007 3.52252e-006 18.5534 -28.3288 0 0.0001 -6.27228 -5.66949 -24.4892 -8.0767 -0.4885 -3.806 16.6585 1.17275 -9.85689 -3.6 1.42109e-014 0.0001 17.2157 -0.20746 -1.3721 -2.1142 -1.42109e-014 0 14.1267 -0.140372 -1.1327 -9.1036 -0.0439 -1.8651 4.50338 -0.41945 -12.3538 -3.154 1.42109e-014 7.10543e-015 30.8917 -0.658595 -2.38326 -2.9377 1.42109e-014 1.42109e-014 12.2488 -0.105668 -0.984589 -9.5325 0 7.10543e-015 4.94416 -0.581232 -4.50445 -3.6982 -1.42109e-014 0 20.5543 -0.295482 -1.62953 -2.9509 1.42109e-014 -1.42109e-014 8.4555 -0.0504301 -0.684389 -9.1083 -0.5168 2.2601 -8.08892 0.322605 -1.59914 -3.6764 1.42109e-014 -1.42109e-014 12.5756 -0.111344 -1.01044 -2.8831 0 7.10543e-015 5.85403 -0.0242165 -0.473324 -2.4648 -1.5727 2.6826 -4.72089 -19.4118 -0.052132 -3.2298 -1.8647 1.8647 -1.36821 11.9326 -32.2565 -2.6526 -1.5314 1.5314 -12.5252 -8.78819 3.99935 8.2078 -6.7517 -1.5996 7.5834 -35.376 14.0589 2.84217e-014 -44.3705 0.2846 0.0309289 37.647 -4.3921 -1.42109e-014 -44.4279 -2.9822 -2.44956 36.1907 4.80989 -2.84217e-014 -8.7287 10.7106 -3.52528e-006 1.01313 -2.20673e-007 -8.2078 -6.7517 -1.5996 -25.4032 -56.7765 -25.2324 0 -44.3705 0.2862 39.5542 81.2429 -44.1948 1.77636e-015 -44.4277 -2.9838 -5.13535 -8.26305 1.42745 -1.77636e-015 -8.7287 10.7106 -1.69462e-006 -8.06962 -6.52754e-007 
